<svg width="41" height="41" viewBox="0 0 41 41" fill="none" xmlns="http://www.w3.org/2000/svg">
<rect width="40.0968" height="40.0968" rx="10.9355" fill="url(#paint0_linear_2617_10990)"/>
<path fill-rule="evenodd" clip-rule="evenodd" d="M14.7462 18.5277C13.8551 18.5277 13.6692 18.7025 13.6692 19.5402V21.059C13.6692 21.8968 13.8551 22.0716 14.7462 22.0716H16.9001V28.1469C16.9001 28.9846 17.0861 29.1594 17.9771 29.1594H20.1311C21.0221 29.1594 21.208 28.9846 21.208 28.1469V22.0716H23.6266C24.3024 22.0716 24.4765 21.9481 24.6622 21.3372L25.1237 19.8184C25.4417 18.7719 25.2458 18.5277 24.0882 18.5277H21.208V15.9963C21.208 15.4371 21.6902 14.9838 22.285 14.9838H25.3503C26.2413 14.9838 26.4273 14.8089 26.4273 13.9712V11.9461C26.4273 11.1084 26.2413 10.9336 25.3503 10.9336H22.285C19.311 10.9336 16.9001 13.2003 16.9001 15.9963V18.5277H14.7462Z" fill="white"/>
<defs>
<linearGradient id="paint0_linear_2617_10990" x1="20.0484" y1="0" x2="20.0484" y2="40.0968" gradientUnits="userSpaceOnUse">
<stop stop-color="#49C01F"/>
<stop offset="1" stop-color="#1FC043"/>
</linearGradient>
</defs>
</svg>
