<svg width="41" height="41" viewBox="0 0 41 41" fill="none" xmlns="http://www.w3.org/2000/svg">
<rect x="0.0966797" width="40.0968" height="40.0968" rx="10.9355" fill="url(#paint0_linear_2617_10994)"/>
<path d="M23.9632 10.9375H16.3266C13.0095 10.9375 11.032 12.915 11.032 16.2321V23.8596C11.032 27.1858 13.0095 29.1633 16.3266 29.1633H23.9541C27.2712 29.1633 29.2487 27.1858 29.2487 23.8687V16.2321C29.2578 12.915 27.2803 10.9375 23.9632 10.9375ZM20.1449 23.5862C18.1947 23.5862 16.6091 22.0006 16.6091 20.0504C16.6091 18.1002 18.1947 16.5146 20.1449 16.5146C22.095 16.5146 23.6807 18.1002 23.6807 20.0504C23.6807 22.0006 22.095 23.5862 20.1449 23.5862ZM25.5397 15.3846C25.4942 15.494 25.4304 15.5942 25.3484 15.6853C25.2572 15.7673 25.157 15.8311 25.0476 15.8767C24.9383 15.9223 24.8198 15.9496 24.7013 15.9496C24.4553 15.9496 24.2275 15.8585 24.0543 15.6853C23.9723 15.5942 23.9085 15.494 23.8629 15.3846C23.8174 15.2752 23.79 15.1568 23.79 15.0383C23.79 14.9198 23.8174 14.8014 23.8629 14.692C23.9085 14.5735 23.9723 14.4824 24.0543 14.3913C24.2639 14.1817 24.5829 14.0815 24.8745 14.1452C24.9383 14.1544 24.9929 14.1726 25.0476 14.1999C25.1023 14.2181 25.157 14.2455 25.2117 14.2819C25.2572 14.3093 25.3028 14.3548 25.3484 14.3913C25.4304 14.4824 25.4942 14.5735 25.5397 14.692C25.5853 14.8014 25.6126 14.9198 25.6126 15.0383C25.6126 15.1568 25.5853 15.2752 25.5397 15.3846Z" fill="white"/>
<defs>
<linearGradient id="paint0_linear_2617_10994" x1="20.1451" y1="0" x2="20.1451" y2="40.0968" gradientUnits="userSpaceOnUse">
<stop stop-color="#49C01F"/>
<stop offset="1" stop-color="#1FC043"/>
</linearGradient>
</defs>
</svg>
