<svg width="41" height="41" viewBox="0 0 41 41" fill="none" xmlns="http://www.w3.org/2000/svg">
<rect x="0.290283" width="40.0968" height="40.0968" rx="10.9355" fill="url(#paint0_linear_2617_11004)"/>
<path d="M24.8949 12.7578H15.782C13.0482 12.7578 11.2256 14.5804 11.2256 17.3143V22.782C11.2256 25.5159 13.0482 27.3385 15.782 27.3385H24.8949C27.6288 27.3385 29.4514 25.5159 29.4514 22.782V17.3143C29.4514 14.5804 27.6288 12.7578 24.8949 12.7578ZM22.0608 20.9868L19.8099 22.3355C18.8986 22.8823 18.1514 22.4631 18.1514 21.3969V18.6903C18.1514 17.6241 18.8986 17.2049 19.8099 17.7517L22.0608 19.1004C22.9266 19.6289 22.9266 20.4673 22.0608 20.9868Z" fill="white"/>
<defs>
<linearGradient id="paint0_linear_2617_11004" x1="20.3387" y1="0" x2="20.3387" y2="40.0968" gradientUnits="userSpaceOnUse">
<stop stop-color="#49C01F"/>
<stop offset="1" stop-color="#1FC043"/>
</linearGradient>
</defs>
</svg>
